<?xml version="1.0" encoding="utf-8"?>
<!-- Generator: Adobe Illustrator 21.0.0, SVG Export Plug-In . SVG Version: 6.00 Build 0)  -->
<svg version="1.1" id="レイヤー_1" xmlns="http://www.w3.org/2000/svg" xmlns:xlink="http://www.w3.org/1999/xlink" x="0px"
	 y="0px" viewBox="0 0 995.9 473" style="enable-background:new 0 0 995.9 473;" xml:space="preserve">
<style type="text/css">
	.st0{fill:none;stroke:#000000;stroke-miterlimit:10;}
	.st1{fill:#FFFF94;}
	.st2{fill:#FFFFFF;}
	.st3{fill:#FF00FF;}
	.st4{fill:#FFFFFF;stroke:#000000;stroke-miterlimit:10;}
	.st5{fill:#FFA694;}
</style>
<symbol  id="カレンダー" viewBox="-32 -31.8 64 63.7">
	<path d="M27,26h-3.1v0.9c0,2.8-2.2,5-5,5h-0.1c-2.8,0-5-2.2-5-5V26h-27.7v0.9c0,2.8-2.2,5-5,5H-19c-2.8,0-5-2.2-5-5V26h-3
		c-2.8,0-5-2.2-5-5v-47.8c0-2.8,2.2-5,5-5h54c2.8,0,5,2.2,5,5V21C32,23.8,29.8,26,27,26z M15.8,27c0,1.7,1.3,3,3,3h0.1
		c1.7,0,3-1.3,3-3V18c0-1.7-1.3-3-3-3h-0.1c-1.7,0-3,1.3-3,3C15.8,18,15.8,27,15.8,27z M-21.9,27c0,1.7,1.3,3,3,3h0.1
		c1.7,0,3-1.3,3-3V18c0-1.7-1.3-3-3-3h-0.1c-1.7,0-3,1.3-3,3V27z M27-27.8h-54c-0.5,0-1,0.5-1,1V8.4h56v-35.1
		C28-27.3,27.5-27.8,27-27.8z"/>
</symbol>
<g id="contents">
	<g id="section1">
		<line class="st0" x1="24.3" y1="-835" x2="971.8" y2="-835"/>
		<title>アセット 1</title>
		<g>
			<path class="st1" d="M964-588.3c0,0,33,67,33,200.3s-36,201.4-186,201.4s-239-25-324-25s-140,25-281,25S-1-232.7-1-358.9
				s36-229.4,36-229.4h-206.5v512h1339v-512L964-588.3L964-588.3z"/>
			<path class="st2" d="M206-186.6c141,0,196-25,281-25s174,25,324,25S997-254.7,997-388s-33-200.3-33-200.3H35
				c0,0-36,103.2-36,229.4S65-186.6,206-186.6z"/>
		</g>
		<path class="st3" d="M-171.5,0"/>
		<rect x="47" y="-235.9" class="st1" width="950" height="207.1"/>
		<path class="st4" d="M498.1-798.4c-20.2,0-36.6-16.4-36.6-36.6c0-20.2,16.4-36.6,36.6-36.6c20.2,0,36.6,16.4,36.6,36.6
			C534.7-814.8,518.2-798.4,498.1-798.4z"/>
		<circle class="st0" cx="498.1" cy="-835" r="26.6"/>
		<line class="st0" x1="24.3" y1="-741.2" x2="971.8" y2="-741.2"/>
		<path class="st0" d="M498.1-714.6l-26.6-26.6c0-14.7,11.9-26.6,26.6-26.6c14.7,0,26.6,11.9,26.6,26.6L498.1-714.6z"/>
		<g>
			<polyline class="st0" points="971.8,-652.2 538.8,-652.2 498.1,-611.5 457.3,-652.2 24.3,-652.2 			"/>
		</g>
		<g>
			
				<rect x="479.2" y="-671" transform="matrix(0.7071 -0.7071 0.7071 0.7071 607.0083 161.1253)" class="st0" width="37.6" height="37.6"/>
		</g>
		
			<use xlink:href="#カレンダー"  width="64" height="63.7" x="-32" y="-31.8" transform="matrix(1 0 0 -1 1038.4574 353.05)" style="overflow:visible;"/>
	</g>
</g>
<g id="header">
	<g>
		<path class="st5" d="M964,0c0,0,33,67,33,200.3s-36,201.4-186,201.4s-239-25-324-25s-140,25-281,25S-1,355.6-1,229.4S35,0,35,0H0
			v512h995.9V0H964z"/>
	</g>
</g>
</svg>
